<?xml version="1.0" standalone="no"?>
<!DOCTYPE svg PUBLIC "-//W3C//DTD SVG 20010904//EN"
 "http://www.w3.org/TR/2001/REC-SVG-20010904/DTD/svg10.dtd">
<svg version="1.0" xmlns="http://www.w3.org/2000/svg"
 width="200.000000pt" height="200.000000pt" viewBox="0 0 200.000000 200.000000"
 preserveAspectRatio="xMidYMid meet">
<metadata>
Created by potrace 1.11, written by Peter Selinger 2001-2013
</metadata>
<g transform="translate(0.000000,200.000000) scale(0.100000,-0.100000)"
fill="#000000" stroke="none">
<path d="M845 1944 c-11 -3 -46 -12 -78 -20 -340 -83 -614 -361 -697 -706 -25
-105 -27 -304 -4 -415 35 -169 118 -325 244 -457 123 -129 254 -210 427 -263
81 -25 101 -27 258 -27 198 0 270 15 420 88 249 122 428 337 507 612 20 69 23
100 22 249 0 155 -3 178 -27 258 -50 161 -117 277 -231 396 -121 125 -255 207
-423 257 -76 23 -110 27 -243 30 -85 1 -164 1 -175 -2z m375 -64 c329 -84 585
-344 667 -677 26 -106 23 -315 -5 -422 -101 -374 -403 -637 -785 -682 -304
-36 -631 104 -817 349 -65 85 -133 225 -161 327 -31 115 -31 335 0 450 95 353
389 618 749 675 89 14 256 4 352 -20z"/>
<path d="M815 1856 c-329 -75 -587 -328 -667 -654 -26 -108 -28 -284 -4 -384
77 -325 308 -569 623 -660 104 -31 351 -33 453 -4 304 84 542 322 626 626 29
102 27 349 -4 454 -48 168 -155 330 -290 442 -74 62 -235 145 -327 170 -82 23
-329 28 -410 10z m399 -123 c38 -11 -9 -22 -128 -33 -131 -11 -194 -24 -243
-47 -68 -32 -24 -73 78 -73 l48 0 3 49 3 49 154 -107 153 -106 -193 -3 c-323
-5 -471 17 -230 34 l106 7 -79 13 c-95 15 -131 29 -156 62 -26 33 -25 54 5 91
32 37 90 60 181 71 68 8 261 4 298 -7z m-625 -172 c28 -28 15 -65 -21 -68 -21
-1 -28 3 -28 16 0 9 -5 22 -12 29 -9 9 -8 12 5 12 10 0 20 7 23 15 8 19 10 19
33 -4z m857 2 c7 -10 14 -30 14 -44 0 -22 -4 -26 -30 -26 -22 0 -30 5 -30 18
0 10 -8 23 -17 28 -16 9 -15 10 5 11 12 0 25 7 28 15 8 19 14 19 30 -2z m-278
-215 c-4 -10 -49 -14 -171 -16 -144 -2 -167 0 -167 13 0 13 24 15 171 15 132
0 170 -3 167 -12z m-776 -88 c11 0 34 -14 51 -31 30 -30 30 -32 12 -45 -25
-18 -49 -18 -65 1 -15 18 -60 20 -84 2 -9 -7 -20 -31 -23 -54 -5 -37 -2 -46
26 -73 53 -54 38 -94 -25 -64 -55 26 -76 67 -71 137 3 49 8 63 34 88 29 30 84
51 111 43 8 -2 23 -4 34 -4z m329 -135 c27 -71 49 -131 49 -132 0 -2 -17 -3
-38 -3 l-37 0 -30 85 c-29 85 -38 93 -50 44 -5 -21 -2 -27 13 -31 10 -3 21
-15 25 -27 4 -18 1 -21 -29 -21 -27 0 -37 -5 -46 -25 -9 -19 -19 -25 -45 -25
-18 0 -33 4 -33 10 0 11 77 215 91 243 8 13 19 17 46 15 l35 -3 49 -130z m201
80 c17 -43 18 -55 7 -87 -14 -45 -26 -48 -35 -12 -9 36 -20 14 -29 -58 l-6
-58 -36 0 c-33 0 -35 2 -30 28 3 15 13 76 23 135 l17 108 35 -3 c31 -3 36 -8
54 -53z m162 33 c7 -30 36 -226 36 -238 0 -6 -15 -10 -34 -10 l-35 0 -6 58
c-10 90 -15 92 -45 17 -19 -49 -33 -70 -45 -70 -37 0 -34 38 12 153 45 112 45
112 79 112 27 0 35 -5 38 -22z m234 -10 l3 -28 -80 0 c-78 0 -81 1 -81 23 0
35 8 38 85 35 68 -3 70 -4 73 -30z m213 3 c28 -35 25 -95 -6 -118 l-25 -18 41
-52 40 -53 -44 0 c-42 0 -46 3 -76 48 l-31 47 0 -47 0 -48 -35 0 -35 0 0 75 0
74 58 3 c53 3 57 5 57 28 0 23 -4 25 -57 28 -57 3 -58 3 -58 34 l0 30 76 -4
c65 -3 79 -7 95 -27z m244 17 c3 -3 1 -17 -6 -30 -9 -20 -18 -25 -47 -24 -51
1 -49 -23 3 -41 48 -16 65 -36 65 -78 0 -66 -64 -105 -139 -85 -48 13 -55 21
-40 53 11 24 13 24 44 11 27 -11 35 -11 50 0 24 17 13 32 -33 47 -54 17 -62
27 -62 72 0 28 7 48 23 65 19 21 29 23 79 20 32 -2 60 -7 63 -10z m-465 -123
c0 -34 -1 -35 -40 -35 -33 0 -40 -3 -40 -20 0 -17 7 -20 45 -20 43 0 45 -1 45
-30 l0 -30 -80 0 -80 0 0 78 c0 43 3 82 7 85 3 4 37 7 75 7 l68 0 0 -35z
m-828 -20 c-7 -63 -50 -112 -102 -117 -35 -4 -42 42 -9 57 33 15 36 35 5 35
-22 0 -26 4 -26 30 l0 31 68 -3 67 -3 -3 -30z m-48 -294 c51 -116 52 -121 31
-121 -13 0 -28 27 -74 135 -7 18 -9 17 -24 -12 l-17 -32 27 -3 c17 -2 29 -10
31 -20 3 -15 -4 -18 -36 -18 -32 0 -41 -5 -50 -25 -11 -23 -42 -36 -42 -16 0
12 100 224 104 220 2 -2 24 -51 50 -108z m667 16 c18 -44 35 -73 37 -65 9 32
65 158 70 154 4 -4 41 -199 42 -218 0 -5 -8 -8 -19 -8 -15 0 -20 12 -28 63
l-10 62 -18 -42 c-10 -23 -22 -40 -28 -36 -6 3 -7 1 -4 -5 8 -12 -1 -42 -12
-42 -4 0 -20 28 -36 63 l-28 62 -10 -62 c-8 -52 -13 -63 -29 -63 -16 0 -19 5
-14 28 3 15 13 67 22 115 9 48 20 84 24 80 4 -4 22 -43 41 -86z m-531 69 c0
-8 -4 -18 -10 -21 -19 -12 -10 -35 18 -47 44 -19 62 -39 62 -71 0 -32 -24 -67
-47 -67 -18 0 -16 20 3 41 22 25 12 44 -35 68 -47 24 -59 52 -37 86 18 27 46
34 46 11z m49 5 c8 -5 11 -16 8 -25 -6 -14 -10 -14 -27 -4 -22 14 -27 38 -7
38 6 0 18 -4 26 -9z m121 -1 c0 -6 -6 -19 -12 -31 -14 -22 -10 -27 51 -61 25
-14 31 -24 31 -49 0 -34 -24 -69 -47 -69 -18 0 -16 20 3 41 22 25 12 45 -33
66 -48 23 -65 63 -38 93 19 21 45 27 45 10z m50 -5 c6 -8 9 -19 5 -24 -8 -13
-45 9 -45 26 0 18 25 16 40 -2z m180 0 c0 -12 -13 -15 -60 -15 -47 0 -60 3
-60 15 0 12 13 15 60 15 47 0 60 -3 60 -15z m414 0 c21 -21 30 -55 17 -68 -7
-7 -4 -18 9 -35 25 -31 25 -43 -1 -76 -17 -22 -28 -26 -70 -26 l-49 0 0 90 c0
83 1 90 20 90 15 0 20 -7 20 -26 0 -19 4 -25 18 -22 11 2 17 12 17 28 0 22 -5
25 -37 28 -25 2 -38 8 -38 18 0 19 74 19 94 -1z m116 -95 c0 -91 -3 -110 -15
-110 -12 0 -15 19 -15 110 0 91 3 110 15 110 12 0 15 -19 15 -110z m113 68
l24 -42 24 42 c14 24 31 42 42 42 23 0 22 -7 -11 -62 -23 -39 -31 -45 -41 -35
-11 10 -11 8 -2 -10 6 -12 11 -42 11 -67 0 -39 -3 -46 -20 -46 -17 0 -20 7
-20 46 0 34 -9 62 -36 110 -33 58 -34 64 -16 64 13 0 29 -15 45 -42z m-723
-18 c0 -17 7 -20 40 -20 33 0 40 -3 40 -20 0 -17 -7 -20 -40 -20 -39 0 -40 -1
-40 -35 0 -34 1 -35 40 -35 29 0 40 -4 40 -15 0 -12 -13 -15 -60 -15 l-60 0 0
90 c0 83 1 90 20 90 13 0 20 -7 20 -20z m-350 -105 c0 -9 7 -18 15 -21 18 -7
20 -34 3 -34 -19 0 -33 12 -46 37 -9 16 -9 23 1 26 21 9 27 7 27 -8z m170 0
c0 -9 7 -18 15 -21 8 -4 15 -12 15 -20 0 -20 -27 -17 -50 6 -23 23 -25 36 -7
43 21 9 27 7 27 -8z m860 -40 c0 -10 -10 -15 -30 -15 -20 0 -30 5 -30 15 0 10
10 15 30 15 20 0 30 -5 30 -15z m-402 -112 c3 -10 -35 -13 -167 -13 -157 0
-184 4 -164 24 4 3 79 5 167 4 117 -2 160 -6 164 -15z m-358 -133 c0 -41 3
-50 18 -50 15 0 17 -6 14 -35 -3 -21 -10 -35 -18 -35 -10 0 -14 -14 -14 -50
l0 -50 -40 0 -40 0 0 44 0 45 -47 3 c-48 3 -48 3 -51 41 l-3 37 50 0 51 0 0
50 0 50 40 0 40 0 0 -50z m365 -85 c0 -29 -4 -41 -16 -43 -19 -3 -49 23 -49
43 0 20 30 46 49 43 12 -2 16 -14 16 -43z m166 3 c4 -28 2 -39 -9 -43 -43 -16
-77 32 -46 66 26 29 48 20 55 -23z"/>
<path d="M1030 1539 c0 -28 3 -31 23 -25 12 3 29 6 37 6 9 0 4 9 -15 25 -39
32 -45 31 -45 -6z"/>
<path d="M1330 754 c0 -31 3 -35 21 -32 12 2 27 11 33 21 9 15 7 21 -8 33 -33
24 -46 17 -46 -22z"/>
<path d="M750 470 c-10 -18 -8 -20 20 -20 28 0 30 2 20 20 -6 11 -15 20 -20
20 -5 0 -14 -9 -20 -20z"/>
<path d="M665 386 c-18 -13 -18 -14 3 -25 29 -16 32 -14 32 14 0 28 -8 31 -35
11z"/>
<path d="M750 280 c6 -11 15 -20 20 -20 5 0 14 9 20 20 10 18 8 20 -20 20 -28
0 -30 -2 -20 -20z"/>
</g>
</svg>
